<!-- Copyright 2000-2023 JetBrains s.r.o. and contributors. Use of this source code is governed by the Apache 2.0 license. -->
<svg xmlns="http://www.w3.org/2000/svg" width="16" height="16" viewBox="0 0 16 16" fill="none">
    <defs>
        <clipPath id="mask">
            <polygon points="0 0 0 16 8 16 8 8 16 8 16 0" fill="white"/>
        </clipPath>
    </defs>

    <g clip-path="url(#mask)" stroke="#CED0D6" stroke-linejoin="round">
        <path d="M3.6 1.5H1.61V4.7H3.6L4.4 4.3H5.6L6.6 5.1H8.8L10.4 3.9C11.6 3.9 12.4 3.9 14.4 5.3C13.2 1.5 10.8 1.5 9.6 1.5H6.6L5.6 1.9H4.4L3.6 1.5Z"/>
        <path d="M6 14.5H9.4V9.426C9.4 8.75 9.26 8.08 9 7.46L8.8 7V5H6.6V7L6.4 7.46C6.14 8.08 6 8.75 6 9.426V14.5Z"/>
    </g>

    <rect width="3.125" height="3.125" x="12.875" y="9" fill="#F25326"/>
    <rect width="3.125" height="3.125" x="9" y="9" fill="#81BC0A"/>
    <rect width="3.125" height="3.125" x="9" y="12.875" fill="#07A6F0"/>
    <rect width="3.125" height="3.125" x="12.875" y="12.875" fill="#FFBA0F"/>
</svg>
