<?xml version="1.0" encoding="utf-8"?>
<!-- Generator: Adobe Illustrator 27.2.0, SVG Export Plug-In . SVG Version: 6.00 Build 0)  -->
<svg version="1.0" id="Layer_1" xmlns="http://www.w3.org/2000/svg" xmlns:xlink="http://www.w3.org/1999/xlink" x="0px" y="0px"
	 width="16px" height="16px" viewBox="0 0 16 16" enable-background="new 0 0 16 16" xml:space="preserve">
<path fill="#52218A" d="M3.1,12c-0.2,0.1-0.4,0.2-0.6,0.1l-1.1-0.4C1.2,11.5,1,11.3,1,11.1V4.9c0-0.2,0.1-0.4,0.4-0.5l1.1-0.4
	c0.2-0.1,0.4,0,0.6,0.1l0.2,0.2C3.2,4.2,3.1,4.2,3,4.2C2.8,4.3,2.8,4.4,2.8,4.5v7c0,0.1,0.1,0.2,0.2,0.3c0.1,0.1,0.2,0,0.3,0L3.1,12
	z"/>
<path fill="#6C33AF" d="M1.4,11.6C1.2,11.5,1,11.3,1,11.1v0c0,0.1,0.1,0.3,0.2,0.3c0.1,0,0.3,0,0.4-0.1l9-9.9c0.3-0.3,0.7-0.3,1-0.2
	l2.9,1.4C14.8,2.7,15,3,15,3.3v0c0-0.2-0.1-0.4-0.3-0.5c-0.2-0.1-0.4-0.1-0.6,0.1L3.3,11.8L3.1,12c-0.2,0.1-0.4,0.2-0.6,0.1
	L1.4,11.6z"/>
<path fill="#854CC7" d="M1.4,4.4C1.2,4.5,1,4.7,1,4.9v0c0-0.1,0.1-0.3,0.2-0.3c0.1,0,0.3,0,0.4,0.1l9,9.9c0.3,0.3,0.7,0.3,1,0.2
	l2.9-1.4c0.3-0.1,0.5-0.4,0.5-0.8v0c0,0.2-0.1,0.4-0.3,0.5c-0.2,0.1-0.4,0.1-0.6-0.1L3.3,4.2L3.1,4C2.9,3.9,2.7,3.9,2.5,3.9L1.4,4.4
	z"/>
<path fill="#B179F1" d="M11.6,14.8c-0.3,0.2-0.7,0.1-1-0.2c0.1,0.1,0.4,0.2,0.6,0.1c0.2-0.1,0.3-0.3,0.3-0.5V1.7
	c0-0.2-0.1-0.4-0.3-0.5c-0.2-0.1-0.4,0-0.6,0.1c0.3-0.3,0.7-0.3,1-0.2l2.9,1.4C14.8,2.7,15,3,15,3.3v9.3c0,0.3-0.2,0.6-0.5,0.8
	L11.6,14.8z"/>
<linearGradient id="SVGID_1_" gradientUnits="userSpaceOnUse" x1="8" y1="-3.1648" x2="8" y2="-3546.8848" gradientTransform="matrix(1 0 0 -1 0 -2)">
	<stop  offset="0" style="stop-color:#FFFFFF"/>
	<stop  offset="1" style="stop-color:#FFFFFF;stop-opacity:0"/>
</linearGradient>
<path fill-rule="evenodd" clip-rule="evenodd" fill="url(#SVGID_1_)" fill-opacity="0.25" d="M11.6,14.8c-0.2,0.1-0.4,0.1-0.6,0.1
	c-0.2,0-0.3-0.1-0.4-0.2L6,9.6l-2.7,2.2L3.1,12c-0.1,0.1-0.3,0.2-0.5,0.1c0,0-0.1,0-0.1,0l-1.1-0.4c-0.2-0.1-0.3-0.3-0.4-0.5v0V4.9
	v0c0-0.2,0.2-0.4,0.4-0.5l1.1-0.4c0,0,0.1,0,0.1,0c0.2,0,0.4,0,0.5,0.1l0.2,0.2L6,6.4l4.6-5.1c0.1-0.1,0.2-0.2,0.3-0.2
	c0.2-0.1,0.4-0.1,0.6,0l2.9,1.4C14.8,2.7,15,3,15,3.3v9.3c0,0.3-0.2,0.6-0.5,0.8L11.6,14.8z M7.9,8l3.6-2.9v5.9L7.9,8z M4.6,8L2.8,6
	v4L4.6,8z"/>
</svg>
